<svg width="375" height="79" viewBox="0 0 375 79" fill="none" xmlns="http://www.w3.org/2000/svg">
<g clip-path="url(#clip0_30_72)">
<circle cx="39.5" cy="39.5" r="39.5" fill="#F94F4F"/>
<circle cx="100.5" cy="39.5" r="39.5" fill="#F94F4F"/>
<path d="M26.2697 20.0012L14 28.0775H26.2697H43.9853C43.9853 28.0775 47.1583 28.0775 47.4227 31.805C47.6871 35.5324 43.9853 35.5324 43.9853 35.5324H20.7171V59H29.1783V43.2981H39.7547L52.5786 59H64.2128L49.2735 41.4342C49.2735 41.4342 57.7347 38.3281 56.1482 29.0093C54.5617 19.6906 45.043 20.0012 45.043 20.0012H26.2697Z" fill="white"/>
<path d="M125.213 20L116.972 30.2234H90.5466C90.5466 30.2234 83.5775 30.6019 83.5775 39.3108C83.5775 48.0195 90.5466 48.7766 90.5466 48.7766H103.949V42.7184H98.3199H91.0988L98.3199 34.7671H112.526V59H89.4744C89.4744 59 75 57.4855 75 39.3108C75 21.136 89.4744 20 89.4744 20H125.213Z" fill="white"/>
<path d="M147 35.2955V30.7273H166.67V35.2955H159.614V54H154.068V35.2955H147ZM169.418 54V30.7273H185.645V35.2955H175.043V40.0682H184.815V44.6477H175.043V49.4318H185.645V54H169.418ZM210.293 39.1591H204.611C204.535 38.5758 204.38 38.0492 204.145 37.5795C203.91 37.1098 203.599 36.7083 203.213 36.375C202.827 36.0417 202.368 35.7879 201.838 35.6136C201.315 35.4318 200.736 35.3409 200.099 35.3409C198.971 35.3409 197.997 35.6174 197.179 36.1705C196.368 36.7235 195.743 37.5227 195.304 38.5682C194.872 39.6136 194.656 40.8788 194.656 42.3636C194.656 43.9091 194.876 45.2045 195.315 46.25C195.762 47.2879 196.387 48.072 197.19 48.6023C198.001 49.125 198.959 49.3864 200.065 49.3864C200.687 49.3864 201.251 49.3068 201.759 49.1477C202.274 48.9886 202.724 48.7576 203.111 48.4545C203.505 48.1439 203.827 47.7689 204.077 47.3295C204.334 46.8826 204.512 46.3788 204.611 45.8182L210.293 45.8523C210.194 46.8826 209.895 47.8977 209.395 48.8977C208.902 49.8977 208.224 50.8106 207.361 51.6364C206.497 52.4545 205.444 53.1061 204.202 53.5909C202.967 54.0758 201.55 54.3182 199.952 54.3182C197.846 54.3182 195.959 53.8561 194.293 52.9318C192.634 52 191.323 50.6439 190.361 48.8636C189.399 47.0833 188.918 44.9167 188.918 42.3636C188.918 39.803 189.406 37.6326 190.384 35.8523C191.361 34.072 192.683 32.7197 194.349 31.7955C196.016 30.8712 197.884 30.4091 199.952 30.4091C201.361 30.4091 202.664 30.6061 203.861 31C205.058 31.3864 206.111 31.9545 207.02 32.7045C207.929 33.447 208.668 34.3598 209.236 35.4432C209.804 36.5265 210.156 37.7652 210.293 39.1591ZM213.511 54V30.7273H219.136V40.0682H228.307V30.7273H233.92V54H228.307V44.6477H219.136V54H213.511ZM257.256 30.7273V54H252.483L243.222 40.5682H243.074V54H237.449V30.7273H242.29L251.449 44.1364H251.642V30.7273H257.256ZM282.759 42.3636C282.759 44.9242 282.266 47.0947 281.281 48.875C280.296 50.6553 278.963 52.0076 277.281 52.9318C275.607 53.8561 273.728 54.3182 271.645 54.3182C269.554 54.3182 267.671 53.8523 265.997 52.9205C264.323 51.9886 262.993 50.6364 262.009 48.8636C261.031 47.0833 260.543 44.9167 260.543 42.3636C260.543 39.803 261.031 37.6326 262.009 35.8523C262.993 34.072 264.323 32.7197 265.997 31.7955C267.671 30.8712 269.554 30.4091 271.645 30.4091C273.728 30.4091 275.607 30.8712 277.281 31.7955C278.963 32.7197 280.296 34.072 281.281 35.8523C282.266 37.6326 282.759 39.803 282.759 42.3636ZM277.009 42.3636C277.009 40.8485 276.793 39.5682 276.361 38.5227C275.937 37.4773 275.323 36.6856 274.52 36.1477C273.724 35.6098 272.766 35.3409 271.645 35.3409C270.531 35.3409 269.573 35.6098 268.77 36.1477C267.967 36.6856 267.349 37.4773 266.918 38.5227C266.493 39.5682 266.281 40.8485 266.281 42.3636C266.281 43.8788 266.493 45.1591 266.918 46.2045C267.349 47.25 267.967 48.0417 268.77 48.5795C269.573 49.1174 270.531 49.3864 271.645 49.3864C272.766 49.3864 273.724 49.1174 274.52 48.5795C275.323 48.0417 275.937 47.25 276.361 46.2045C276.793 45.1591 277.009 43.8788 277.009 42.3636ZM286.043 54V30.7273H291.668V49.4318H301.349V54H286.043ZM325.321 42.3636C325.321 44.9242 324.829 47.0947 323.844 48.875C322.859 50.6553 321.526 52.0076 319.844 52.9318C318.17 53.8561 316.291 54.3182 314.207 54.3182C312.116 54.3182 310.234 53.8523 308.56 52.9205C306.885 51.9886 305.556 50.6364 304.571 48.8636C303.594 47.0833 303.105 44.9167 303.105 42.3636C303.105 39.803 303.594 37.6326 304.571 35.8523C305.556 34.072 306.885 32.7197 308.56 31.7955C310.234 30.8712 312.116 30.4091 314.207 30.4091C316.291 30.4091 318.17 30.8712 319.844 31.7955C321.526 32.7197 322.859 34.072 323.844 35.8523C324.829 37.6326 325.321 39.803 325.321 42.3636ZM319.571 42.3636C319.571 40.8485 319.355 39.5682 318.923 38.5227C318.499 37.4773 317.885 36.6856 317.082 36.1477C316.287 35.6098 315.329 35.3409 314.207 35.3409C313.094 35.3409 312.135 35.6098 311.332 36.1477C310.529 36.6856 309.912 37.4773 309.48 38.5227C309.056 39.5682 308.844 40.8485 308.844 42.3636C308.844 43.8788 309.056 45.1591 309.48 46.2045C309.912 47.25 310.529 48.0417 311.332 48.5795C312.135 49.1174 313.094 49.3864 314.207 49.3864C315.329 49.3864 316.287 49.1174 317.082 48.5795C317.885 48.0417 318.499 47.25 318.923 46.2045C319.355 45.1591 319.571 43.8788 319.571 42.3636ZM343.878 38.3295C343.749 37.8523 343.56 37.4318 343.31 37.0682C343.06 36.697 342.753 36.3826 342.389 36.125C342.026 35.8674 341.609 35.6742 341.139 35.5455C340.67 35.4091 340.154 35.3409 339.594 35.3409C338.465 35.3409 337.488 35.6136 336.662 36.1591C335.844 36.7045 335.211 37.5 334.764 38.5455C334.317 39.5833 334.094 40.8447 334.094 42.3295C334.094 43.822 334.31 45.0947 334.741 46.1477C335.173 47.2008 335.798 48.0038 336.616 48.5568C337.435 49.1098 338.427 49.3864 339.594 49.3864C340.624 49.3864 341.495 49.2197 342.207 48.8864C342.927 48.5455 343.473 48.0644 343.844 47.4432C344.215 46.822 344.401 46.0909 344.401 45.25L345.446 45.375H339.787V41.2727H349.821V44.3523C349.821 46.4356 349.378 48.2197 348.491 49.7045C347.613 51.1894 346.401 52.3295 344.855 53.125C343.317 53.9205 341.548 54.3182 339.548 54.3182C337.329 54.3182 335.378 53.8371 333.696 52.875C332.014 51.9129 330.704 50.5417 329.764 48.7614C328.825 46.9735 328.355 44.8523 328.355 42.3977C328.355 40.4886 328.639 38.7955 329.207 37.3182C329.776 35.8333 330.567 34.5758 331.582 33.5455C332.605 32.5152 333.787 31.7348 335.128 31.2045C336.476 30.6742 337.927 30.4091 339.48 30.4091C340.829 30.4091 342.082 30.6023 343.241 30.9886C344.408 31.375 345.438 31.9205 346.332 32.625C347.234 33.3295 347.965 34.1667 348.526 35.1364C349.086 36.1061 349.435 37.1705 349.571 38.3295H343.878ZM350.977 30.7273H357.261L362.182 40.4659H362.386L367.307 30.7273H373.591L365.08 46.2273V54H359.489V46.2273L350.977 30.7273Z" fill="black"/>
</g>
<defs>
<clipPath id="clip0_30_72">
<rect width="375" height="79" fill="white"/>
</clipPath>
</defs>
</svg>
